<svg width="56" height="56" viewBox="0 0 56 56" fill="none" xmlns="http://www.w3.org/2000/svg">
<path d="M10.414 10.5002C9.67199 10.7988 9.01399 11.1745 8.41666 11.6435C7.94844 12.0168 7.51755 12.4236 7.12399 12.8638C4.66699 15.6172 4.66699 19.7472 4.66699 28.0002C4.66699 36.2532 4.66699 40.3808 7.12399 43.1365C7.51755 43.5783 7.94844 43.9843 8.41666 44.3545C11.345 46.6668 15.7293 46.6668 24.5003 46.6668H31.5003C38.4817 46.6668 42.6 46.6668 45.5003 45.5002M18.667 9.37083C20.3657 9.3335 22.293 9.3335 24.5003 9.3335H31.5003C40.2713 9.3335 44.6557 9.3335 47.5817 11.6435C48.0514 12.0168 48.4831 12.4236 48.8767 12.8638C51.3337 15.6172 51.3337 19.7472 51.3337 28.0002C51.3337 33.3972 51.3337 37.0302 50.6477 39.6668M43.1903 28.0002H43.167M12.8337 28.0002H12.8127" stroke="#F1C513" stroke-width="2.5" stroke-linecap="round" stroke-linejoin="round"/>
<path d="M32.0697 32.0647C31.5316 32.6219 30.8879 33.0663 30.1762 33.372C29.4645 33.6777 28.699 33.8386 27.9245 33.8454C27.15 33.8521 26.3818 33.7045 25.6649 33.4112C24.948 33.1179 24.2967 32.6848 23.749 32.1371C23.2013 31.5893 22.7682 30.938 22.4749 30.2211C22.1816 29.5043 22.034 28.7361 22.0407 27.9616C22.0474 27.187 22.2083 26.4216 22.5141 25.7099C22.8198 24.9982 23.2642 24.3545 23.8213 23.8164M4.66699 4.66675L51.3337 51.3334" stroke="#F1C513" stroke-width="2.5" stroke-linecap="round" stroke-linejoin="round"/>
</svg>
