<svg width="260" height="204" viewBox="0 0 260 204" fill="none" xmlns="http://www.w3.org/2000/svg">
<circle cx="4" cy="200" r="4" fill="#493181" fill-opacity="0.2"/>
<circle cx="40" cy="200" r="4" fill="#493181" fill-opacity="0.2"/>
<circle cx="40" cy="172" r="4" fill="#493181" fill-opacity="0.2"/>
<circle cx="76" cy="200" r="4" fill="#493181" fill-opacity="0.2"/>
<circle cx="76" cy="172" r="4" fill="#493181" fill-opacity="0.2"/>
<circle cx="76" cy="144" r="4" fill="#493181" fill-opacity="0.2"/>
<circle cx="112" cy="200" r="4" fill="#493181" fill-opacity="0.2"/>
<circle cx="112" cy="172" r="4" fill="#493181" fill-opacity="0.2"/>
<circle cx="112" cy="144" r="4" fill="#493181" fill-opacity="0.2"/>
<circle cx="112" cy="116" r="4" fill="#493181" fill-opacity="0.2"/>
<circle cx="148" cy="200" r="4" fill="#493181" fill-opacity="0.2"/>
<circle cx="148" cy="172" r="4" fill="#493181" fill-opacity="0.2"/>
<circle cx="148" cy="144" r="4" fill="#493181" fill-opacity="0.2"/>
<circle cx="148" cy="116" r="4" fill="#493181" fill-opacity="0.2"/>
<circle cx="148" cy="88" r="4" fill="#493181" fill-opacity="0.2"/>
<circle cx="184" cy="200" r="4" fill="#493181" fill-opacity="0.2"/>
<circle cx="184" cy="172" r="4" fill="#493181" fill-opacity="0.2"/>
<circle cx="184" cy="144" r="4" fill="#493181" fill-opacity="0.2"/>
<circle cx="184" cy="116" r="4" fill="#493181" fill-opacity="0.2"/>
<circle cx="184" cy="88" r="4" fill="#493181" fill-opacity="0.2"/>
<circle cx="184" cy="60" r="4" fill="#493181" fill-opacity="0.2"/>
<circle cx="220" cy="200" r="4" fill="#493181" fill-opacity="0.2"/>
<circle cx="220" cy="172" r="4" fill="#493181" fill-opacity="0.2"/>
<circle cx="220" cy="144" r="4" fill="#493181" fill-opacity="0.2"/>
<circle cx="220" cy="116" r="4" fill="#493181" fill-opacity="0.2"/>
<circle cx="220" cy="88" r="4" fill="#493181" fill-opacity="0.2"/>
<circle cx="220" cy="60" r="4" fill="#493181" fill-opacity="0.2"/>
<circle cx="220" cy="32" r="4" fill="#493181" fill-opacity="0.2"/>
<circle cx="256" cy="200" r="4" fill="#493181" fill-opacity="0.2"/>
<circle cx="256" cy="172" r="4" fill="#493181" fill-opacity="0.2"/>
<circle cx="256" cy="144" r="4" fill="#493181" fill-opacity="0.2"/>
<circle cx="256" cy="116" r="4" fill="#493181" fill-opacity="0.2"/>
<circle cx="256" cy="88" r="4" fill="#493181" fill-opacity="0.2"/>
<circle cx="256" cy="60" r="4" fill="#493181" fill-opacity="0.2"/>
<circle cx="256" cy="32" r="4" fill="#493181" fill-opacity="0.2"/>
<circle cx="256" cy="4" r="4" fill="#493181" fill-opacity="0.2"/>
</svg>
